# xmcd CD database file
#
# Track frame offsets:
#	150
#	18840
#	42282
#	58660
#	68072
#	83147
#	103475
#	124647
#	143185
#	171427
#	191332
#	197380
#	214100
#	229585
#	248850
#
# Disc length: 3538 seconds
#
# Revision: 0
# Processed by: cddbd v1.5.2PL0 Copyright (c) Steve Scherf et al.
# Submitted via: CDex 1.51
#
DISCID=ce0dd00f
DTITLE=Miles Davis - Porgy and Bess
DYEAR=1997
DGENRE=Jazz
TTITLE0=Buzzard Song
TTITLE1=Bess, You Is My Woman Now
TTITLE2=Gone
TTITLE3=Gone, Gone, Gone
TTITLE4=Summertime
TTITLE5=Oh Bess, Oh Where's My Bess
TTITLE6=Prayer (Oh Doctor Jesus)
TTITLE7=Fishermen, Strawberry And Devil Crab
TTITLE8=My Man's Gone Now
TTITLE9=I Ain't Necessarily So
TTITLE10=Here Come De Honey Man
TTITLE11=I Loves You, Porgy
TTITLE12=There's A Boat That's Leaving Soon For New York
TTITLE13=I Loves You, Porgy (Take 1, Second Version)
TTITLE14=Gone (Take 4)
EXTD=YEAR: 1997
EXTT0=
EXTT1=
EXTT2=
EXTT3=
EXTT4=
EXTT5=
EXTT6=
EXTT7=
EXTT8=
EXTT9=
EXTT10=
EXTT11=
EXTT12=
EXTT13=
EXTT14=
PLAYORDER=
